<svg width="25" height="24" viewBox="0 0 25 24" fill="none" xmlns="http://www.w3.org/2000/svg">
<path d="M3.75 22C3.19772 22 2.75 21.5523 2.75 21V3C2.75 2.44772 3.19771 2 3.75 2C4.30228 2 4.75 2.44772 4.75 3L4.75 20H21.75C22.3023 20 22.75 20.4477 22.75 21C22.75 21.5523 22.3023 22 21.75 22H3.75Z" fill="#1F2229" fill-opacity="0.8" style="fill:#1F2229;fill:color(display-p3 0.1216 0.1333 0.1608);fill-opacity:0.8;"/>
<path d="M22.4571 9.70711C22.8476 9.31658 22.8476 8.68342 22.4571 8.29289C22.0666 7.90237 21.4334 7.90237 21.0429 8.29289L16.5 12.8358L13.7071 10.0429C13.3166 9.65237 12.6834 9.65237 12.2929 10.0429L7.04289 15.2929C6.65237 15.6834 6.65237 16.3166 7.04289 16.7071C7.43342 17.0976 8.06658 17.0976 8.45711 16.7071L13 12.1642L15.7929 14.9571C16.1834 15.3476 16.8166 15.3476 17.2071 14.9571L22.4571 9.70711Z" fill="#1F2229" fill-opacity="0.8" style="fill:#1F2229;fill:color(display-p3 0.1216 0.1333 0.1608);fill-opacity:0.8;"/>
</svg>
