<?xml version="1.0" standalone="no"?>
<!DOCTYPE svg PUBLIC "-//W3C//DTD SVG 20010904//EN"
 "http://www.w3.org/TR/2001/REC-SVG-20010904/DTD/svg10.dtd">
<svg version="1.0" xmlns="http://www.w3.org/2000/svg"
 width="25.000000pt" height="24.000000pt" viewBox="0 0 25.000000 24.000000"
 preserveAspectRatio="xMidYMid meet">

<g transform="translate(0.000000,24.000000) scale(0.100000,-0.100000)"
fill="#000000" stroke="none">
<path d="M30 121 l0 -101 95 0 c57 0 95 4 95 10 0 6 -35 10 -85 10 l-85 0 0
84 c0 47 -4 88 -10 91 -6 4 -10 -30 -10 -94z"/>
<path d="M190 135 c-22 -23 -25 -24 -42 -8 -17 15 -20 15 -48 -12 -17 -16 -30
-33 -30 -39 0 -5 13 3 30 19 28 27 31 27 48 12 17 -16 20 -15 47 13 16 16 26
32 23 35 -2 3 -15 -6 -28 -20z"/>
</g>
</svg>
