<svg width="24" height="24" viewBox="0 0 24 24" fill="none" xmlns="http://www.w3.org/2000/svg">
<path fill-rule="evenodd" clip-rule="evenodd" d="M5.57745 5.57745C5.90289 5.25201 6.43053 5.25201 6.75596 5.57745L12 10.8215L17.2441 5.57745C17.5696 5.25201 18.0972 5.25201 18.4226 5.57745C18.7481 5.90289 18.7481 6.43053 18.4226 6.75596L13.1786 12L18.4226 17.2441C18.7481 17.5696 18.7481 18.0972 18.4226 18.4226C18.0972 18.7481 17.5696 18.7481 17.2441 18.4226L12 13.1786L6.75596 18.4226C6.43053 18.7481 5.90289 18.7481 5.57745 18.4226C5.25201 18.0972 5.25201 17.5696 5.57745 17.2441L10.8215 12L5.57745 6.75596C5.25201 6.43053 5.25201 5.90289 5.57745 5.57745Z" fill="#1F2229" fill-opacity="0.8" style="fill:#1F2229;fill:color(display-p3 0.1216 0.1333 0.1608);fill-opacity:0.8;"/>
</svg>
