<svg width="24" height="24" viewBox="0 0 24 24" fill="none" xmlns="http://www.w3.org/2000/svg">
<path fill-rule="evenodd" clip-rule="evenodd" d="M11.2424 10.4848C10.824 10.4848 10.4849 10.824 10.4849 11.2424V18.0606C10.4849 18.479 10.824 18.8181 11.2424 18.8181H18.0606C18.479 18.8181 18.8182 18.479 18.8182 18.0606V11.2424C18.8182 10.824 18.479 10.4848 18.0606 10.4848H11.2424ZM8.96972 11.2424C8.96972 9.98719 9.98725 8.96966 11.2424 8.96966H18.0606C19.3158 8.96966 20.3334 9.98719 20.3334 11.2424V18.0606C20.3334 19.3158 19.3158 20.3333 18.0606 20.3333H11.2424C9.98725 20.3333 8.96972 19.3158 8.96972 18.0606V11.2424Z" fill="#1F2229" fill-opacity="0.8" style="fill:#1F2229;fill:color(display-p3 0.1216 0.1333 0.1608);fill-opacity:0.8;"/>
<path fill-rule="evenodd" clip-rule="evenodd" d="M5.93941 5.18178C5.52102 5.18178 5.18184 5.52096 5.18184 5.93935V12.7575C5.18184 13.1759 5.52101 13.5151 5.93941 13.5151H6.69699C7.11539 13.5151 7.45457 13.8543 7.45457 14.2727C7.45457 14.6911 7.11539 15.0303 6.69699 15.0303H5.93941C4.68423 15.0303 3.66669 14.0128 3.66669 12.7575V5.93935C3.66669 4.68416 4.68422 3.66663 5.93941 3.66663H12.7576C14.0128 3.66663 15.0303 4.68417 15.0303 5.93935V6.69693C15.0303 7.11533 14.6911 7.45451 14.2727 7.45451C13.8544 7.45451 13.5152 7.11533 13.5152 6.69693V5.93935C13.5152 5.52095 13.176 5.18178 12.7576 5.18178H5.93941Z" fill="#1F2229" fill-opacity="0.8" style="fill:#1F2229;fill:color(display-p3 0.1216 0.1333 0.1608);fill-opacity:0.8;"/>
</svg>
