<?xml version="1.0" standalone="no"?>
<!DOCTYPE svg PUBLIC "-//W3C//DTD SVG 20010904//EN"
 "http://www.w3.org/TR/2001/REC-SVG-20010904/DTD/svg10.dtd">
<svg version="1.0" xmlns="http://www.w3.org/2000/svg"
 width="24.000000pt" height="24.000000pt" viewBox="0 0 24.000000 24.000000"
 preserveAspectRatio="xMidYMid meet">

<g transform="translate(0.000000,24.000000) scale(0.100000,-0.100000)"
fill="#000000" stroke="none">
<path d="M42 149 c2 -33 8 -53 16 -55 7 -1 8 0 2 3 -5 2 -10 25 -10 49 l0 44
44 0 c24 0 47 -5 49 -10 3 -6 4 -5 3 2 -2 8 -22 14 -55 16 l-52 3 3 -52z"/>
<path d="M94 137 c-3 -8 -4 -32 -2 -53 l3 -39 53 -3 53 -3 -3 53 -3 53 -48 3
c-34 2 -49 -1 -53 -11z m96 -42 l0 -45 -45 0 -45 0 0 38 c0 21 3 42 7 45 3 4
24 7 45 7 l38 0 0 -45z"/>
</g>
</svg>
