<svg width="25" height="24" viewBox="0 0 25 24" fill="none" xmlns="http://www.w3.org/2000/svg">
<path d="M2.25 6.80525V17.1949C2.25 18.7268 3.36083 20.1819 4.97727 20.1819H17.7045C19.321 20.1819 20.4318 18.7268 20.4318 17.1949V14.9871H21.3409C21.843 14.9871 22.25 14.58 22.25 14.078V9.92214C22.25 9.42006 21.843 9.01305 21.3409 9.01305H20.4318V6.80525C20.4318 5.2734 19.321 3.81824 17.7045 3.81824H4.97727C3.36081 3.81824 2.25 5.27339 2.25 6.80525ZM20.4318 13.1689H15.8864C15.4945 13.1689 14.9773 12.7634 14.9773 12.0001C14.9773 11.2367 15.4945 10.8312 15.8864 10.8312H20.4318V13.1689ZM18.6136 9.01305H15.8864C14.2699 9.01305 13.1591 10.4682 13.1591 12.0001C13.1591 13.532 14.2699 14.9871 15.8864 14.9871H18.6136V17.1949C18.6136 17.9582 18.0964 18.3637 17.7045 18.3637H4.97727C4.58541 18.3637 4.06818 17.9582 4.06818 17.1949V6.80525C4.06818 6.0419 4.58542 5.63642 4.97727 5.63642H17.7045C18.0964 5.63642 18.6136 6.04189 18.6136 6.80525V9.01305Z" fill="#1F2229" fill-opacity="0.8" style="fill:#1F2229;fill:color(display-p3 0.1216 0.1333 0.1608);fill-opacity:0.8;"/>
</svg>
