<?xml version="1.0" standalone="no"?>
<!DOCTYPE svg PUBLIC "-//W3C//DTD SVG 20010904//EN"
 "http://www.w3.org/TR/2001/REC-SVG-20010904/DTD/svg10.dtd">
<svg version="1.0" xmlns="http://www.w3.org/2000/svg"
 width="25.000000pt" height="24.000000pt" viewBox="0 0 25.000000 24.000000"
 preserveAspectRatio="xMidYMid meet">

<g transform="translate(0.000000,24.000000) scale(0.100000,-0.100000)"
fill="#000000" stroke="none">
<path d="M26 185 c-11 -29 -6 -111 7 -129 10 -14 25 -16 87 -14 69 3 75 5 78
26 2 12 8 22 13 22 5 0 9 14 9 30 0 17 -4 30 -9 30 -5 0 -11 10 -13 23 -3 20
-9 22 -84 25 -68 2 -83 0 -88 -13z m162 -17 c2 -12 -3 -18 -16 -18 -11 0 -25
-7 -32 -15 -16 -19 3 -45 32 -45 13 0 18 -6 16 -17 -3 -15 -15 -18 -73 -18
l-70 0 -3 54 c-5 80 -3 82 75 79 55 -2 68 -6 71 -20z m22 -48 c0 -5 -13 -10
-30 -10 -16 0 -30 5 -30 10 0 6 14 10 30 10 17 0 30 -4 30 -10z"/>
</g>
</svg>
